<?xml version="1.0" standalone="no"?>
<!DOCTYPE svg PUBLIC "-//W3C//DTD SVG 20010904//EN"
 "http://www.w3.org/TR/2001/REC-SVG-20010904/DTD/svg10.dtd">
<svg version="1.0" xmlns="http://www.w3.org/2000/svg"
 width="500.000000pt" height="500.000000pt" viewBox="0 0 500.000000 500.000000"
 preserveAspectRatio="xMidYMid meet">

<g transform="translate(0.000000,500.000000) scale(0.100000,-0.100000)"
fill="#000000" stroke="none">
<path d="M3810 4344 c-88 -87 -160 -164 -160 -171 0 -7 113 -125 250 -263 180
-179 257 -250 273 -250 16 0 68 45 175 154 l152 155 0 66 c0 36 -5 76 -11 88
-13 25 -323 337 -334 337 -4 0 -13 8 -20 17 -10 13 -32 18 -89 21 l-75 4 -161
-158z"/>
<path d="M855 4162 c-6 -4 -32 -14 -60 -21 -27 -6 -52 -15 -55 -19 -3 -4 -21
-15 -42 -26 -43 -22 -118 -93 -118 -113 0 -7 -5 -13 -11 -13 -5 0 -15 -13 -20
-30 -6 -16 -14 -30 -18 -30 -29 0 -31 -128 -31 -1585 0 -1454 3 -1585 31
-1585 3 0 12 -13 19 -30 7 -16 16 -30 21 -30 5 0 14 -11 19 -24 5 -13 21 -32
35 -43 15 -10 35 -25 45 -34 10 -9 42 -30 71 -45 l54 -29 1530 0 1530 0 54 28
c30 16 61 35 68 43 8 8 18 14 22 14 10 0 81 68 81 79 0 5 7 14 15 21 8 7 15
21 15 31 0 11 4 19 9 19 11 0 31 78 31 119 0 17 5 31 10 31 7 0 10 313 10 920
0 519 -4 920 -9 920 -5 0 -11 14 -15 31 -3 17 -20 45 -38 62 -29 30 -37 32
-107 35 -87 3 -127 -14 -161 -70 -20 -32 -20 -53 -20 -951 0 -855 -1 -921 -17
-948 -10 -17 -27 -32 -38 -35 -11 -2 -664 -3 -1452 -2 -1159 2 -1434 5 -1445
16 -11 11 -13 288 -16 1454 l-2 1442 27 28 27 28 837 0 c489 0 848 4 862 9 39
15 76 56 83 90 4 17 10 31 15 31 12 0 11 77 -1 85 -5 3 -10 14 -10 24 0 25
-64 91 -89 91 -12 0 -21 5 -21 10 0 12 -1711 14 -1725 2z"/>
<path d="M2957 3492 c-307 -306 -564 -562 -570 -569 -7 -7 -63 -63 -124 -125
-63 -63 -113 -120 -113 -131 0 -17 34 -58 108 -130 19 -18 114 -112 212 -209
99 -98 187 -178 197 -178 24 0 1383 1360 1383 1384 0 25 -491 516 -516 516
-12 0 -237 -218 -577 -558z"/>
<path d="M2051 2443 c-22 -111 -50 -298 -51 -335 0 -21 -4 -38 -10 -38 -5 0
-10 -20 -10 -45 l0 -45 39 0 c22 0 41 3 43 8 2 4 66 15 144 25 77 10 154 22
170 27 16 5 50 12 77 15 33 5 47 11 47 22 0 20 -403 423 -423 423 -10 0 -19
-19 -26 -57z"/>
</g>
</svg>
