<!-- Generated by IcoMoon.io -->
<svg version="1.1" xmlns="http://www.w3.org/2000/svg" width="1024" height="1024" viewBox="0 0 1024 1024">
<g id="icomoon-ignore">
</g>
<path fill="#000" d="M746.961 59.764c-25.693 3.351-54.737 13.964-77.265 28.3-13.964 8.937-37.050 31.092-47.104 45.242-11.171 15.639-23.831 43.008-28.858 62.185-7.633 29.789-6.889 72.983 1.862 101.655l3.351 11.543-104.634 104.634-99.607-99.607 22.342-22.342c26.438-26.438 28.113-29.975 23.087-48.593-3.91-14.522-2.793-32.209 2.607-42.822 8.751-17.315 38.54-45.987 63.116-60.881 11.916-7.261 15.453-12.66 15.453-23.273-0.186-9.681-3.165-14.15-15.825-23.831-27.183-20.48-58.089-30.906-93.091-31.092-43.753-0.186-75.217 13.591-117.295 51.945-8.192 7.447-75.404 74.659-149.504 149.504l-134.423 135.913v19.549l63.86 63.86c68.143 68.329 68.143 68.515 82.665 64.977 3.537-0.931 23.087-19.177 57.903-53.807l52.503-52.503 99.607 99.607-106.496 106.496-9.123-2.793c-28.3-9.123-71.308-10.612-99.98-3.537-59.020 14.522-105.193 53.807-127.348 108.358-10.24 25.321-12.66 38.726-12.66 71.68 0 22.9 0.745 33.14 3.537 44.125 4.468 18.618 8.564 22.714 22.714 22.714h10.24l85.271-85.271 33.885 5.399c29.417 4.841 33.885 5.958 35.375 9.309 0.745 2.048 3.724 17.501 6.33 34.444l4.655 30.534-42.077 42.263-42.263 42.263-0.931 10.054c-1.489 18.246 7.633 23.645 46.545 27.927 78.755 8.751 153.786-32.023 186.927-101.841 13.777-28.858 16.57-43.008 16.57-81.92 0-29.231-0.559-35.561-4.282-49.152l-4.282-15.825 106.31-106.31 169.798 169.612c128.838 128.465 172.218 170.729 179.479 174.452 40.96 21.411 94.394 8.564 118.039-28.486 10.24-16.012 13.591-30.161 12.66-53.062-0.745-18.432-1.489-21.969-7.075-34.444-6.144-13.777-7.82-15.639-176.314-184.32l-169.984-170.356 52.689-52.503 52.503-52.689 11.171 3.537c28.113 8.751 68.329 9.681 98.676 2.234 77.638-18.991 132.189-82.665 138.519-162.164 2.234-27.555-1.489-62.929-7.82-75.404-3.351-6.33-7.447-8.192-18.991-8.378h-10.985l-85.83 85.085-67.025-11.543-11.543-67.025 42.636-43.008 42.449-43.008v-10.985c0-6.144-1.117-12.474-2.607-14.15-8.006-10.612-54.737-17.129-90.112-12.474zM743.238 130.886c-31.837 32.023-32.023 32.396-32.023 40.588 0 10.799 15.825 104.448 18.432 109.475 1.117 2.048 3.537 4.655 5.399 5.585 6.33 3.351 109.103 19.549 114.874 18.060 3.724-0.931 15.825-11.543 35.933-31.465l30.161-29.975v7.82c0 14.15-5.585 34.257-14.895 53.62-15.825 32.954-46.545 60.695-80.244 72.983-35.561 12.66-66.281 12.102-101.655-2.42-12.66-5.027-20.852-5.772-27.183-2.607-2.234 1.117-30.348 28.113-62.371 59.951l-58.089 58.089-45.615-45.615 59.020-59.020c53.62-53.993 58.833-59.951 59.951-66.839 0.931-5.027 0.372-10.24-1.676-15.825-10.426-27.927-12.66-37.795-12.847-59.392 0-16.756 0.931-24.576 4.096-35.933 17.687-61.999 69.632-103.145 138.147-109.103 1.489 0-11.729 14.336-29.417 32.023zM424.867 102.4c13.219 1.862 36.864 10.426 36.864 13.219 0 0.931-0.559 1.676-1.303 1.676-2.793 0-26.252 21.411-36.678 33.513-21.039 24.39-30.348 51.386-28.113 81.92l1.117 15.825-87.692 87.505-87.505 87.505-87.505-87.505 96.256-96.442c53.062-53.062 102.586-101.469 110.22-107.613 19.735-16.198 43.939-27.369 64.419-30.161 3.165-0.372 5.958-0.931 6.516-0.931 0.559-0.186 6.516 0.559 13.405 1.489zM636.183 618.496c149.504 149.876 273.315 275.177 274.991 278.342 5.027 10.054 5.772 21.783 2.048 31.651-4.096 10.612-15.825 23.645-26.065 28.858-9.495 5.027-25.321 5.213-34.444 0.745-3.537-1.862-128.465-125.114-279.645-276.294l-273.315-273.129 31.092-31.092c17.129-17.315 31.651-31.279 32.209-31.279s123.439 122.508 273.129 272.198zM146.711 412.020l43.194 43.194-40.029 40.029-87.505-87.505 19.549-19.549c10.799-10.799 19.921-19.549 20.48-19.549s20.48 19.549 44.311 43.38zM422.074 594.292l22.9 22.9-60.695 60.695-60.695 60.881 0.931 10.799c0.372 6.144 3.537 18.432 6.889 27.741 10.612 29.231 9.681 63.674-2.42 94.022-20.48 50.641-67.212 85.271-124.183 92.16l-10.24 1.303 30.348-30.534c24.762-24.948 30.72-32.023 32.023-37.609 1.117-5.399-0.559-19.549-7.447-60.323-8.192-48.407-9.309-53.62-13.405-57.158-3.724-3.165-14.708-5.585-57.716-12.847-32.582-5.399-55.11-8.378-58.461-7.447-3.537 0.745-15.825 11.543-36.678 32.209-35.002 34.816-34.071 34.63-28.486 5.213 6.703-35.002 24.948-64.977 52.876-87.319 42.077-33.327 92.719-40.774 142.057-20.852 5.958 2.42 14.522 4.468 18.804 4.468 7.82 0 8.006-0.186 68.515-60.509 33.327-33.327 60.881-60.509 61.44-60.509s11.171 10.24 23.645 22.714z"></path>
</svg>
