<?xml version="1.0" standalone="no"?>
<!DOCTYPE svg PUBLIC "-//W3C//DTD SVG 20010904//EN"
 "http://www.w3.org/TR/2001/REC-SVG-20010904/DTD/svg10.dtd">
<svg version="1.0" xmlns="http://www.w3.org/2000/svg"
 width="550.000000pt" height="447.000000pt" viewBox="0 0 550.000000 447.000000"
 preserveAspectRatio="xMidYMid meet">

<g transform="translate(0.000000,447.000000) scale(0.100000,-0.100000)"
fill="#000000" stroke="none">
<path d="M2079 4445 c-44 -24 -51 -63 -28 -153 56 -215 83 -305 100 -327 49
-62 159 -24 159 56 0 12 -23 105 -50 208 -41 150 -55 190 -76 209 -29 25 -67
28 -105 7z"/>
<path d="M835 4365 c-18 -17 -25 -35 -25 -63 0 -37 11 -49 395 -432 217 -217
401 -397 408 -402 8 -4 76 -9 153 -12 161 -5 225 -21 367 -90 51 -25 137 -60
192 -79 55 -19 116 -42 135 -50 19 -9 134 -55 255 -102 151 -59 227 -93 243
-111 34 -39 26 -108 -17 -141 -30 -23 -90 -13 -277 48 -241 79 -254 81 -294
41 -31 -31 -39 -72 -20 -102 5 -8 205 -211 444 -450 470 -469 454 -450 426
-524 -13 -34 -69 -61 -106 -52 -20 5 -131 109 -344 321 -173 172 -325 318
-338 325 -54 27 -122 -21 -122 -88 0 -34 23 -59 400 -437 385 -386 400 -403
400 -439 0 -55 -43 -96 -101 -96 l-43 0 -400 399 c-231 229 -411 401 -425 404
-31 8 -86 -15 -100 -41 -6 -12 -11 -35 -11 -53 0 -30 33 -66 350 -384 370
-371 369 -370 339 -428 -30 -58 -93 -73 -146 -34 -17 13 -176 167 -352 342
-176 176 -331 323 -343 328 -32 11 -66 1 -94 -30 -27 -29 -30 -62 -10 -101 8
-15 98 -110 201 -212 103 -102 193 -194 201 -205 40 -56 -9 -145 -79 -145 -19
0 -45 8 -58 19 -71 56 -901 897 -933 945 -86 129 -124 253 -133 426 l-5 115
-392 393 c-215 216 -405 401 -422 412 -45 28 -80 25 -115 -9 -34 -35 -38 -73
-9 -116 10 -16 185 -194 388 -395 l369 -365 6 -95 c12 -189 89 -386 210 -535
36 -44 258 -271 494 -506 477 -474 475 -472 597 -472 91 -1 150 26 214 99 l48
53 62 -58 c72 -69 126 -91 222 -91 99 0 192 53 238 137 9 15 31 -3 169 -138
171 -168 253 -226 395 -284 97 -40 192 -62 310 -71 l83 -7 356 -355 c196 -195
362 -358 370 -363 51 -32 129 20 129 87 0 37 -14 52 -377 417 -208 208 -390
385 -405 393 -18 9 -58 14 -119 14 -209 0 -387 80 -567 255 l-87 84 52 46 c31
27 63 68 79 100 24 49 26 64 22 133 -3 42 -12 91 -21 107 l-15 31 53 41 c73
56 109 132 109 222 -2 119 -12 133 -332 452 -157 158 -288 291 -289 296 -2 6
15 6 47 -1 42 -8 64 -7 121 8 39 10 72 16 74 14 2 -1 105 -103 229 -226 204
-204 228 -224 265 -229 35 -5 44 -2 71 25 34 34 39 74 14 110 -8 12 -117 123
-241 245 l-225 223 10 54 c13 72 0 141 -39 204 -32 51 -32 64 -2 47 10 -5 195
-187 412 -405 l394 -395 -30 -63 c-38 -79 -48 -107 -69 -188 -23 -86 -22 -243
1 -335 22 -87 87 -214 141 -271 33 -36 47 -44 77 -44 53 0 92 37 91 86 0 30
-10 53 -47 104 -61 84 -88 156 -94 256 -9 136 13 210 129 426 l20 37 -72 222
c-78 242 -81 271 -33 309 14 11 41 20 59 20 64 0 83 -31 198 -320 57 -146 123
-314 145 -375 21 -60 53 -135 70 -166 62 -112 96 -280 84 -415 l-6 -76 384
-384 c380 -379 385 -384 425 -384 68 0 111 68 80 126 -8 16 -168 182 -355 369
l-341 340 0 76 c0 148 -38 299 -111 443 -17 34 -45 99 -61 146 -32 91 -188
486 -240 609 -18 41 -48 89 -69 111 -143 144 -379 99 -461 -88 -16 -35 -19
-61 -16 -123 2 -44 1 -79 -2 -79 -3 0 -131 126 -285 281 -154 154 -298 291
-320 304 -92 54 -205 53 -295 -5 -26 -16 -54 -30 -62 -30 -9 0 -46 13 -84 30
-91 39 -384 152 -454 175 -30 10 -82 33 -115 51 -119 64 -272 103 -417 105
l-93 1 -375 374 -376 374 -42 0 c-32 0 -49 -6 -67 -25z"/>
<path d="M3201 4308 c-17 -9 -62 -88 -154 -267 -141 -277 -145 -292 -91 -338
29 -26 63 -29 102 -9 39 20 288 510 279 548 -16 61 -83 94 -136 66z"/>
<path d="M3890 3400 c-116 -46 -183 -79 -197 -96 -50 -56 -13 -144 60 -144 29
0 326 107 386 140 44 23 54 94 19 135 -41 46 -74 42 -268 -35z"/>
<path d="M490 1778 c-165 -28 -177 -31 -204 -60 -24 -26 -27 -37 -22 -67 6
-42 46 -81 83 -81 41 0 384 60 404 71 26 13 39 42 39 81 0 38 -6 48 -40 71
-32 22 -51 21 -260 -15z"/>
<path d="M1254 1108 c-33 -35 -170 -203 -272 -332 -34 -44 -65 -90 -68 -103
-15 -57 47 -121 105 -108 34 7 68 43 201 210 57 72 121 151 142 176 48 58 60
95 43 137 -27 62 -102 72 -151 20z"/>
<path d="M2004 718 c-45 -21 -48 -43 -38 -257 8 -178 11 -203 30 -227 27 -36
67 -47 110 -29 51 21 57 42 50 179 -15 276 -16 288 -47 318 -29 30 -66 35
-105 16z"/>
</g>
</svg>
